<?xml version="1.0" standalone="no"?>
<!DOCTYPE svg PUBLIC "-//W3C//DTD SVG 20010904//EN"
 "http://www.w3.org/TR/2001/REC-SVG-20010904/DTD/svg10.dtd">
<svg version="1.0" xmlns="http://www.w3.org/2000/svg"
 width="300.000000pt" height="300.000000pt" viewBox="0 0 300.000000 300.000000"
 preserveAspectRatio="xMidYMid meet">
<metadata>
Created by potrace 1.11, written by Peter Selinger 2001-2013
</metadata>
<g transform="translate(0.000000,300.000000) scale(0.100000,-0.100000)"
fill="#000000" stroke="none">
<path d="M2860 2509 c-37 -8 -144 -19 -340 -34 -73 -5 -126 -10 -220 -20 -25
-2 -74 -7 -110 -11 -36 -3 -74 -8 -85 -10 -11 -2 -38 -6 -60 -9 -88 -9 -103
-12 -375 -59 -158 -27 -304 -67 -390 -108 -133 -64 -340 -253 -340 -312 0 -9
10 -27 23 -39 176 -166 195 -186 266 -281 62 -81 102 -158 127 -243 10 -35 23
-63 29 -63 5 0 100 91 210 201 288 289 300 299 565 467 30 19 67 43 83 53 15
11 27 17 27 14 0 -3 -89 -95 -198 -203 -109 -108 -227 -230 -262 -270 -36 -41
-76 -86 -90 -101 -14 -15 -37 -43 -52 -63 -15 -20 -33 -42 -40 -50 -7 -7 -35
-42 -63 -78 -27 -36 -52 -67 -55 -70 -9 -8 -51 -70 -130 -190 -69 -104 -92
-141 -159 -263 -12 -22 -42 -86 -66 -143 -43 -100 -54 -144 -37 -144 4 0 45
-7 92 -16 101 -19 364 -27 435 -13 28 5 64 12 80 15 86 15 213 69 309 132 61
40 180 149 230 211 39 50 133 199 166 266 19 39 37 72 40 75 3 3 11 21 18 40
8 19 32 82 54 140 22 58 41 112 43 120 2 8 13 53 25 100 12 47 23 92 25 100
12 58 92 359 112 420 14 41 26 80 27 85 1 6 4 15 7 20 4 6 12 28 19 50 13 40
45 115 100 232 32 68 33 67 -40 52z"/>
<path d="M474 2173 c-4 -27 -8 -50 -9 -53 -1 -3 -7 -25 -14 -50 -6 -25 -22
-72 -34 -105 -12 -33 -22 -62 -23 -65 -1 -8 -15 -42 -29 -75 -7 -16 -30 -68
-50 -115 -20 -47 -42 -98 -50 -115 -71 -163 -105 -394 -80 -550 10 -61 63
-195 77 -195 5 0 8 -7 8 -15 0 -25 129 -149 205 -197 69 -44 145 -83 149 -76
5 8 27 80 31 100 3 13 9 46 15 73 32 151 34 533 4 750 -2 17 -6 48 -9 70 -2
22 -6 49 -9 60 -2 11 -6 45 -10 75 -5 45 -4 51 5 30 13 -28 79 -217 84 -240 2
-8 16 -53 30 -100 15 -47 28 -94 30 -105 2 -11 13 -60 24 -110 11 -49 23 -108
26 -130 3 -22 10 -65 15 -95 4 -30 9 -62 9 -70 7 -204 10 -273 15 -277 3 -4
14 1 24 10 10 10 22 17 26 17 7 0 60 46 115 102 157 158 238 372 207 548 -27
147 -96 248 -338 486 -191 188 -283 287 -361 387 -33 42 -63 77 -67 77 -4 0
-11 -21 -16 -47z"/>
</g>
</svg>
